<svg version="1.1" xmlns="http://www.w3.org/2000/svg" width="32" height="32" viewBox="0 0 32 32">
<title>high-email</title>
<path fill="#494A52" d="M3.93 25.72h24.14c2.209 0 4-1.791 4-4v0-12.67c0-2.209-1.791-4-4-4v0h-24.14c-2.209 0-4 1.791-4 4v0 12.65c-0 0.006-0 0.013-0 0.020 0 2.209 1.791 4 4 4 0 0 0 0 0 0v0zM4.93 11.63c-0.162-0.197-0.261-0.452-0.261-0.73 0-0.635 0.515-1.15 1.15-1.15 0.222 0 0.43 0.063 0.606 0.172l-0.005-0.003 8.060 7.16c0.405 0.362 0.941 0.583 1.53 0.583s1.125-0.221 1.532-0.585l-0.002 0.002 8.060-7.16c0.202-0.181 0.471-0.291 0.765-0.291 0.636 0 1.151 0.515 1.151 1.151 0 0.341-0.149 0.648-0.385 0.859l-0.001 0.001-4 3.57 4.060 3.94c0.234 0.211 0.381 0.516 0.381 0.855 0 0.635-0.515 1.15-1.15 1.15-0.327 0-0.621-0.136-0.831-0.355l-0-0-4.18-4.060-2.36 2.060c-0.808 0.721-1.88 1.161-3.055 1.161s-2.247-0.44-3.060-1.165l0.005 0.004-2.32-2.060-4.17 4.060c-0.21 0.219-0.505 0.355-0.831 0.355-0.635 0-1.15-0.515-1.15-1.15 0-0.339 0.147-0.644 0.38-0.854l0.001-0.001 4.060-3.94z"></path>
</svg>