<svg id="Layer_1" data-name="Layer 1" xmlns="http://www.w3.org/2000/svg" viewBox="0 0 32 32"><defs><style>.cls-1{fill:#ffffff;}</style></defs><title>high-left</title><path class="cls-1" d="M20,2.33a1.58,1.58,0,0,0-2.23.05l-10.51,11a.42.42,0,0,0,0,.07l-.1.16a1.61,1.61,0,0,0-.17.27,1.55,1.55,0,0,0-.06.29,1.58,1.58,0,0,0-.05.3,1.58,1.58,0,0,0,.05.3,1.55,1.55,0,0,0,.06.29,1.61,1.61,0,0,0,.17.27l.1.16a.41.41,0,0,0,0,.07l10.51,11a1.58,1.58,0,1,0,2.28-2.17l-9.47-9.94,9.47-9.94A1.57,1.57,0,0,0,20,2.33Z"/></svg>