<!-- Generated by IcoMoon.io -->
<svg version="1.1" xmlns="http://www.w3.org/2000/svg" width="32" height="32" viewBox="0 0 32 32">
<title>high-link</title>
<path fill="#494A52" d="M22.6 17.57c0-0.911-0.739-1.65-1.65-1.65s-1.65 0.739-1.65 1.65v0 6.19c0 0.077-0.063 0.14-0.14 0.14v0h-6.32c-0.077 0-0.14-0.063-0.14-0.14v0-6.19c0-0.911-0.739-1.65-1.65-1.65s-1.65 0.739-1.65 1.65v0 6.19c0 1.9 1.54 3.44 3.44 3.44v0h6.32c1.9 0 3.44-1.54 3.44-3.44v0z"></path>
<path fill="#494A52" d="M22.6 4.24c0-1.9-1.54-3.44-3.44-3.44v0h-6.32c-1.9 0-3.44 1.54-3.44 3.44v6.19c0 0.911 0.739 1.65 1.65 1.65s1.65-0.739 1.65-1.65v0-6.19c0-0.077 0.063-0.14 0.14-0.14v0h6.32c0.077 0 0.14 0.063 0.14 0.14v0 6.19c0 0.911 0.739 1.65 1.65 1.65s1.65-0.739 1.65-1.65v0z"></path>
<path fill="#494A52" d="M17.65 19.36v-10.72c0-0.911-0.739-1.65-1.65-1.65s-1.65 0.739-1.65 1.65v0 10.72c0 0.911 0.739 1.65 1.65 1.65s1.65-0.739 1.65-1.65v0z"></path>
</svg>
