<svg version="1.1" xmlns="http://www.w3.org/2000/svg" width="32" height="32" viewBox="0 -5 32 32">
<title>high-lists</title>
<path fill="#494A52" d="M28.69 11c0.906-0.916 1.481-2.162 1.53-3.541l0-0.009c-0.017-1.981-1.627-3.579-3.61-3.579-1.71 0-3.142 1.189-3.515 2.785l-0.005 0.024c1.834 1.061 3.052 3.006 3.070 5.237l0 0.003v10.2h4.060c1.105 0 2-0.895 2-2v0-5.12c0-0.008 0-0.018 0-0.028 0-2.044-1.532-3.729-3.511-3.97l-0.019-0.002z"></path>
<path fill="#494A52" d="M1.78 22.14h4.070v-10.2c0.018-2.234 1.236-4.179 3.041-5.224l0.029-0.016c-0.378-1.621-1.81-2.809-3.52-2.809-1.983 0-3.593 1.599-3.61 3.578v0.002c0.052 1.38 0.622 2.617 1.521 3.531l-0.001-0.001c-2.012 0.229-3.56 1.922-3.56 3.976 0 0.009 0 0.017 0 0.026v-0.001 5.080c-0.001 0.018-0.001 0.039-0.001 0.060 0 1.105 0.895 2 2 2 0.011 0 0.022-0 0.033-0l-0.002 0z"></path>
<path fill="#494A52" d="M7.88 12v12.17c0 1.105 0.895 2 2 2v0h12.21c1.105 0 2-0.895 2-2v0-12.17c0-2.242-1.818-4.060-4.060-4.060v0h-1.76c0.31-0.295 0.583-0.623 0.817-0.979l0.013-0.021c0.189-0.286 0.367-0.614 0.514-0.959l0.016-0.041c0.257-0.589 0.413-1.274 0.43-1.994l0-0.006c0-2.242-1.818-4.060-4.060-4.060s-4.060 1.818-4.060 4.060v0c0.017 0.726 0.173 1.411 0.444 2.035l-0.014-0.035c0.163 0.386 0.341 0.714 0.545 1.024l-0.015-0.024c0.247 0.377 0.52 0.705 0.828 0.998l0.002 0.002h-1.79c-2.242 0-4.060 1.818-4.060 4.060v0z"></path>
</svg>