<svg version="1.1" xmlns="http://www.w3.org/2000/svg" width="32" height="32" viewBox="0 -5 32 32">
<title>high-time</title>
<path fill="#494A52" d="M26.87 11.73c0-6.003-4.867-10.87-10.87-10.87s-10.87 4.867-10.87 10.87c0 6.003 4.867 10.87 10.87 10.87v0c6.001-0.006 10.864-4.869 10.87-10.869v-0.001zM17.090 5.21v6.52h4.35c0.555 0.055 0.986 0.52 0.986 1.085s-0.43 1.030-0.981 1.085l-0.005 0h-5.44c-0.602 0-1.090-0.488-1.090-1.090v0-7.6c0.055-0.555 0.52-0.986 1.085-0.986s1.030 0.43 1.085 0.981l0 0.005z"></path>
<path fill="#494A52" d="M24.46-2.21c-0.241-0.148-0.533-0.236-0.845-0.236-0.588 0-1.104 0.312-1.391 0.779l-0.004 0.007c-0.147 0.24-0.235 0.531-0.235 0.842 0 0.584 0.307 1.096 0.768 1.384l0.007 0.004c2.553 1.57 4.495 3.923 5.511 6.719l0.029 0.091c0.246 0.607 0.831 1.028 1.515 1.028 0.9 0 1.63-0.73 1.63-1.63 0-0.174-0.027-0.342-0.078-0.5l0.003 0.012c-1.305-3.603-3.726-6.538-6.84-8.46l-0.070-0.041z"></path>
<path fill="#494A52" d="M9.24 0.57c0.475-0.291 0.786-0.806 0.786-1.395 0-0.312-0.088-0.604-0.24-0.852l0.004 0.007c-0.293-0.473-0.809-0.783-1.398-0.783-0.311 0-0.602 0.087-0.849 0.237l0.007-0.004c-3.194 1.964-5.623 4.907-6.894 8.406l-0.036 0.114c-0.058 0.161-0.092 0.346-0.092 0.54 0 0.901 0.731 1.632 1.632 1.632 0.708 0 1.31-0.451 1.536-1.081l0.004-0.011c1.045-2.887 2.987-5.24 5.483-6.778l0.057-0.032z"></path>
<path fill="#494A52" d="M26.7 22.42c-0.274-0.539-0.825-0.902-1.46-0.902-0.901 0-1.632 0.731-1.632 1.632 0 0.266 0.064 0.517 0.177 0.739l-0.004-0.009 1.090 2.12c0.274 0.539 0.825 0.902 1.46 0.902 0.901 0 1.632-0.731 1.632-1.632 0-0.266-0.064-0.517-0.177-0.739l0.004 0.009z"></path>
<path fill="#494A52" d="M7.49 21.69c-0.213-0.109-0.465-0.173-0.731-0.173-0.635 0-1.186 0.363-1.455 0.894l-0.004 0.009-1.090 2.17c-0.061 0.165-0.097 0.355-0.097 0.554 0 0.9 0.73 1.63 1.63 1.63 0.583 0 1.095-0.306 1.383-0.767l0.004-0.007 1.090-2.17c0.097-0.202 0.154-0.44 0.154-0.691 0-0.628-0.355-1.172-0.875-1.445l-0.009-0.004z"></path>
</svg>