<!-- Generated by IcoMoon.io -->
<svg version="1.1" xmlns="http://www.w3.org/2000/svg" width="32" height="32" viewBox="0 0 32 32">
<title>high-date</title>
<path fill="#494A52" d="M9.050 11.5h1.99c0.547 0 0.99 0.443 0.99 0.99v1.99c0 0.547-0.443 0.99-0.99 0.99h-1.99c-0.547 0-0.99-0.443-0.99-0.99v-1.99c0-0.547 0.443-0.99 0.99-0.99z"></path>
<path fill="#494A52" d="M15 11.5h1.99c0.547 0 0.99 0.443 0.99 0.99v1.99c0 0.547-0.443 0.99-0.99 0.99h-1.99c-0.547 0-0.99-0.443-0.99-0.99v-1.99c0-0.547 0.443-0.99 0.99-0.99z"></path>
<path fill="#494A52" d="M20.96 11.5h1.99c0.547 0 0.99 0.443 0.99 0.99v1.99c0 0.547-0.443 0.99-0.99 0.99h-1.99c-0.547 0-0.99-0.443-0.99-0.99v-1.99c0-0.547 0.443-0.99 0.99-0.99z"></path>
<path fill="#494A52" d="M9.050 17.46h1.99c0.547 0 0.99 0.443 0.99 0.99v1.99c0 0.547-0.443 0.99-0.99 0.99h-1.99c-0.547 0-0.99-0.443-0.99-0.99v-1.99c0-0.547 0.443-0.99 0.99-0.99z"></path>
<path fill="#494A52" d="M15 17.46h1.99c0.547 0 0.99 0.443 0.99 0.99v1.99c0 0.547-0.443 0.99-0.99 0.99h-1.99c-0.547 0-0.99-0.443-0.99-0.99v-1.99c0-0.547 0.443-0.99 0.99-0.99z"></path>
<path fill="#494A52" d="M10.54-2.4c-0.015-0.001-0.032-0.001-0.050-0.001-0.823 0-1.49 0.667-1.49 1.49 0 0 0 0.001 0 0.001v-0 2.48h-2.43c-0 0-0 0-0 0-1.904 0-3.451 1.53-3.48 3.427l-0 0.003v17.92c0 1.922 1.558 3.48 3.48 3.48h13.9c0.010 0 0.022 0 0.034 0 0.393 0 0.751-0.152 1.017-0.401l-0.001 0.001 7-7c0.241-0.263 0.389-0.614 0.39-1v-13c0-1.922-1.558-3.48-3.48-3.48h-2.43v-2.43c0-0 0-0.001 0-0.001 0-0.823-0.667-1.49-1.49-1.49-0.018 0-0.035 0-0.053 0.001l0.003-0c-0.81 0.017-1.46 0.677-1.46 1.49 0 0 0 0 0 0v-0 2.48h-8v-2.48c0-0 0-0 0-0 0-0.812-0.65-1.473-1.458-1.49l-0.002-0zM6.54 23.42c-0.276 0-0.5-0.224-0.5-0.5v0-13.4h19.89v7.82l-0.12 0.12h-3.81c-1.105 0-2 0.895-2 2v0 3.84l-0.12 0.12z"></path>
</svg>
