<svg id="Layer_1" data-name="Layer 1" xmlns="http://www.w3.org/2000/svg" viewBox="0 0 32 32"><defs><style>.cls-1{fill:#494A52;}</style></defs><title>high-externalLink</title><path class="cls-1" d="M30.27-1.36a1.65,1.65,0,0,0-.36-.54,1.65,1.65,0,0,0-.54-.36h0a1.65,1.65,0,0,0-.61-.12H18.66A1.66,1.66,0,0,0,17-.73,1.66,1.66,0,0,0,18.66.93h6.07L10.58,15.07a1.66,1.66,0,1,0,2.35,2.35L27.07,3.28V9.35a1.66,1.66,0,0,0,3.32,0V-.73a1.65,1.65,0,0,0-.12-.61Z"/><path class="cls-1" d="M24.3,14.22a1.66,1.66,0,0,0-1.66,1.66v6.74a.46.46,0,0,1-.46.46H5.39a.46.46,0,0,1-.46-.46V5.82a.46.46,0,0,1,.46-.46h6.74a1.66,1.66,0,0,0,0-3.32H5.39A3.79,3.79,0,0,0,1.61,5.82V22.61A3.79,3.79,0,0,0,5.39,26.4H22.18A3.79,3.79,0,0,0,26,22.61V15.88A1.66,1.66,0,0,0,24.3,14.22Z"/></svg>